<?xml version="1.0" encoding="UTF-8" standalone="no"?>
<svg
   xmlns:dc="http://purl.org/dc/elements/1.1/"
   xmlns:cc="http://creativecommons.org/ns#"
   xmlns:rdf="http://www.w3.org/1999/02/22-rdf-syntax-ns#"
   xmlns:svg="http://www.w3.org/2000/svg"
   xmlns="http://www.w3.org/2000/svg"
   xmlns:sodipodi="http://sodipodi.sourceforge.net/DTD/sodipodi-0.dtd"
   xmlns:inkscape="http://www.inkscape.org/namespaces/inkscape"
   xml:space="preserve"
   version="1.1"
   style="clip-rule:evenodd;fill-rule:evenodd;image-rendering:optimizeQuality;shape-rendering:geometricPrecision;text-rendering:geometricPrecision"
   viewBox="0 0 231.542 265.00001"
   x="0px"
   y="0px"
   id="svg14"
   sodipodi:docname="noun_Woman_1392260.svg"
   width="231.54201"
   height="265"
   inkscape:version="0.92.3 (2405546, 2018-03-11)"
   inkscape:export-filename="C:\Users\cirom\Downloads\noun_Woman_1392260.png"
   inkscape:export-xdpi="96"
   inkscape:export-ydpi="96"><metadata
     id="metadata18"><rdf:RDF><cc:Work
         rdf:about=""><dc:format>image/svg+xml</dc:format><dc:type
           rdf:resource="http://purl.org/dc/dcmitype/StillImage" /><dc:title /></cc:Work></rdf:RDF></metadata><sodipodi:namedview
     pagecolor="#ffffff"
     bordercolor="#666666"
     borderopacity="1"
     objecttolerance="10"
     gridtolerance="10"
     guidetolerance="10"
     inkscape:pageopacity="0"
     inkscape:pageshadow="2"
     inkscape:window-width="1920"
     inkscape:window-height="1027"
     id="namedview16"
     showgrid="false"
     inkscape:zoom="0.72576587"
     inkscape:cx="-138.44321"
     inkscape:cy="162.58687"
     inkscape:window-x="-8"
     inkscape:window-y="-8"
     inkscape:window-maximized="1"
     inkscape:current-layer="g8" /><defs
     id="defs4"><style
       type="text/css"
       id="style2">
   
    .fil0 {fill:black;fill-rule:nonzero}
   
  </style></defs><g
     id="g8"
     transform="translate(0,2.4305)"><path
       class="fil0"
       d="M 115.771,260.139 H 4.479 C 2.006,260.139 0,258.133 0,255.66 v -16.105 c 0,-17.602 5.667,-34.072 15.805,-46.551 9.757,-12.009 23.613,-20.299 40.515,-22.362 l 3.268,-0.4 C 56.492,159.23 52.687,150.164 49.028,141.443 41.546,123.61 34.643,107.159 34.643,77.308 34.643,56.03 43.997,36.889 58.64,22.975 73.596,8.765 94.096,0 115.769,0 c 21.674,0 42.174,8.765 57.129,22.975 14.644,13.914 23.998,33.055 23.998,54.333 0,29.851 -6.903,46.302 -14.385,64.135 -3.661,8.722 -7.465,17.788 -10.561,28.801 l 3.272,0.398 c 16.9,2.062 30.757,10.353 40.514,22.361 10.139,12.48 15.806,28.953 15.806,46.552 v 16.105 c 0,2.473 -2.006,4.479 -4.479,4.479 z m 27.882,-89.765 -2.762,-13.015 c -8.393,4.999 -17.345,7.883 -25.122,7.883 -7.805,0 -16.749,-2.869 -25.126,-7.847 l -2.754,12.979 27.882,24.712 z m 5.204,-18.547 3.399,16.025 10.735,1.304 c 3.353,-12.332 7.389,-21.945 11.263,-31.177 7.118,-16.964 13.684,-32.613 13.684,-60.671 0,-18.706 -8.264,-35.571 -21.198,-47.86 -13.337,-12.673 -31.628,-20.49 -50.971,-20.49 -19.342,0 -37.634,7.817 -50.97,20.49 -12.934,12.289 -21.198,29.154 -21.198,47.86 0,28.058 6.566,43.707 13.684,60.671 3.873,9.231 7.91,18.842 11.261,31.17 l 10.742,-1.31 3.389,-15.968 c -1.955,-1.567 -3.839,-3.25 -5.627,-5.037 C 67.236,137.02 60.184,123.991 60.184,109.655 V 63.627 c 0,-2.473 2.006,-4.479 4.479,-4.479 6.114,0 13.178,-1.098 19.822,-2.766 5.179,-1.3 10.058,-2.926 13.997,-4.634 -3.467,-5.632 -5.803,-11.565 -6.747,-17.521 -0.386,-2.435 1.274,-4.721 3.708,-5.107 2.434,-0.386 4.721,1.274 5.107,3.708 0.957,6.037 3.728,12.11 7.902,17.782 0.113,0.134 0.22,0.276 0.318,0.425 3.849,5.131 8.85,9.923 14.684,14.05 11.914,8.424 27.238,13.99 43.425,13.99 2.473,0 4.479,2.006 4.479,4.479 v 26.101 c 0,14.31 -7.062,27.322 -16.873,37.132 -1.789,1.789 -3.673,3.473 -5.628,5.04 z M 162.4,87.906 c -16.448,-0.926 -31.875,-6.873 -44.088,-15.509 -5.545,-3.92 -10.446,-8.413 -14.495,-13.262 -4.733,2.219 -10.789,4.325 -17.162,5.924 -5.764,1.448 -11.846,2.504 -17.513,2.888 v 41.708 c 0,11.721 5.952,22.561 14.239,30.848 9.671,9.671 22.325,15.781 32.388,15.781 10.008,0 22.689,-6.132 32.385,-15.828 8.284,-8.283 14.246,-19.106 14.246,-30.801 z M 8.958,251.181 h 213.626 v -11.626 c 0,-15.564 -4.937,-30.042 -13.775,-40.919 -8.333,-10.256 -20.189,-17.342 -34.67,-19.107 l -24.052,-2.936 -31.357,27.791 c -1.664,1.476 -4.206,1.514 -5.914,0.004 l -31.361,-27.795 -24.052,2.936 c -14.483,1.767 -26.338,8.851 -34.672,19.109 -8.834,10.874 -13.773,25.35 -13.773,40.917 z"
       id="path6"
       inkscape:connector-curvature="0"
       style="fill:#ff9955;fill-rule:nonzero" /></g></svg>