<?xml version="1.0" encoding="UTF-8" standalone="no"?>
<svg
   xmlns:dc="http://purl.org/dc/elements/1.1/"
   xmlns:cc="http://creativecommons.org/ns#"
   xmlns:rdf="http://www.w3.org/1999/02/22-rdf-syntax-ns#"
   xmlns:svg="http://www.w3.org/2000/svg"
   xmlns="http://www.w3.org/2000/svg"
   xmlns:sodipodi="http://sodipodi.sourceforge.net/DTD/sodipodi-0.dtd"
   xmlns:inkscape="http://www.inkscape.org/namespaces/inkscape"
   version="1.1"
   x="0px"
   y="0px"
   viewBox="0 0 170 250"
   xml:space="preserve"
   id="svg14"
   sodipodi:docname="noun_Stamp_1893233.svg"
   width="170"
   height="250"
   inkscape:version="0.92.3 (2405546, 2018-03-11)"><metadata
     id="metadata20"><rdf:RDF><cc:Work
         rdf:about=""><dc:format>image/svg+xml</dc:format><dc:type
           rdf:resource="http://purl.org/dc/dcmitype/StillImage" /><dc:title></dc:title></cc:Work></rdf:RDF></metadata><defs
     id="defs18" /><sodipodi:namedview
     pagecolor="#ffffff"
     bordercolor="#666666"
     borderopacity="1"
     objecttolerance="10"
     gridtolerance="10"
     guidetolerance="10"
     inkscape:pageopacity="0"
     inkscape:pageshadow="2"
     inkscape:window-width="1920"
     inkscape:window-height="1027"
     id="namedview16"
     showgrid="false"
     inkscape:zoom="1.888"
     inkscape:cx="50"
     inkscape:cy="62.5"
     inkscape:window-x="-8"
     inkscape:window-y="-8"
     inkscape:window-maximized="1"
     inkscape:current-layer="svg14" /><g
     id="g8"
     transform="matrix(2.5555556,0,0,2.5555556,-42.77778,-2.77778)"
     style="fill:#00aad4;fill-opacity:1"><path
       d="M 72.449,37.599 C 72.449,25.221 62.378,15.15 50,15.15 c -12.378,0 -22.449,10.07 -22.449,22.448 0,12.379 10.071,22.449 22.449,22.449 12.378,0 22.449,-10.069 22.449,-22.448 z m -40.898,0 c 0,-10.173 8.276,-18.448 18.449,-18.448 10.173,0 18.449,8.275 18.449,18.448 0,10.173 -8.276,18.449 -18.449,18.449 -10.173,0 -18.449,-8.277 -18.449,-18.449 z"
       id="path2"
       inkscape:connector-curvature="0"
       style="fill:#00aad4;fill-opacity:1" /><path
       d="m 61.981,95 c 0.714,-0.011 1.369,-0.402 1.717,-1.026 l 4.213,-7.556 10.057,1.771 c 0.77,0.134 1.552,-0.192 1.996,-0.838 0.443,-0.646 0.469,-1.492 0.064,-2.163 L 67.805,64.885 C 76.704,59.058 82.599,49.007 82.599,37.598 82.599,19.624 67.975,5 50,5 32.025,5 17.401,19.624 17.401,37.599 c 0,11.409 5.896,21.461 14.795,27.288 L 19.975,85.182 c -0.404,0.672 -0.379,1.518 0.064,2.164 0.443,0.646 1.226,0.976 1.995,0.838 l 10.057,-1.766 4.217,7.557 c 0.348,0.624 1.002,1.015 1.717,1.025 0.01,0 0.02,0 0.03,0 0.703,0 1.355,-0.369 1.717,-0.974 l 10.23,-17.109 10.233,17.109 c 0.361,0.605 1.013,0.974 1.716,0.974 0.01,0 0.02,0 0.03,0 z M 21.401,37.599 C 21.401,21.829 34.23,9 50,9 65.77,9 78.599,21.829 78.599,37.599 78.599,53.369 65.77,66.198 50,66.198 34.23,66.198 21.401,53.368 21.401,37.599 Z M 38.113,89.003 34.89,83.228 c -0.415,-0.743 -1.254,-1.143 -2.092,-0.995 l -7.132,1.252 10.005,-16.613 c 4.149,2.039 8.793,3.216 13.698,3.311 z M 52.331,73.021 54.185,69.92 c 3.597,-0.463 7.013,-1.51 10.147,-3.05 l 10.003,16.617 -7.132,-1.256 c -0.837,-0.148 -1.679,0.251 -2.094,0.996 l -3.22,5.774 z"
       id="path4"
       inkscape:connector-curvature="0"
       style="fill:#00aad4;fill-opacity:1" /><path
       d="m 61.323,27.341 c -0.899,-0.64 -2.148,-0.434 -2.79,0.466 L 47.631,43.069 41.307,36.24 c -0.751,-0.812 -2.016,-0.86 -2.826,-0.109 -0.811,0.751 -0.859,2.017 -0.108,2.826 l 7.992,8.631 c 0.379,0.41 0.912,0.642 1.467,0.642 0.042,0 0.084,-10e-4 0.126,-0.004 0.601,-0.038 1.151,-0.345 1.501,-0.834 L 61.788,30.131 c 0.642,-0.899 0.434,-2.148 -0.465,-2.79 z"
       id="path6"
       inkscape:connector-curvature="0"
       style="fill:#00aad4;fill-opacity:1" /></g></svg>