<?xml version="1.0" encoding="UTF-8" standalone="no"?>
<svg
   xmlns:dc="http://purl.org/dc/elements/1.1/"
   xmlns:cc="http://creativecommons.org/ns#"
   xmlns:rdf="http://www.w3.org/1999/02/22-rdf-syntax-ns#"
   xmlns:svg="http://www.w3.org/2000/svg"
   xmlns="http://www.w3.org/2000/svg"
   xmlns:sodipodi="http://sodipodi.sourceforge.net/DTD/sodipodi-0.dtd"
   xmlns:inkscape="http://www.inkscape.org/namespaces/inkscape"
   version="1.1"
   x="0px"
   y="0px"
   viewBox="0 0 220 250"
   enable-background="new 0 0 50 50"
   xml:space="preserve"
   id="svg10"
   sodipodi:docname="noun_Calculator_2389958.svg"
   width="220"
   height="250"
   inkscape:version="0.92.3 (2405546, 2018-03-11)"
   inkscape:export-filename="C:\Users\cirom\Downloads\noun_Calculator_2389958.png"
   inkscape:export-xdpi="96"
   inkscape:export-ydpi="96"><metadata
     id="metadata16"><rdf:RDF><cc:Work
         rdf:about=""><dc:format>image/svg+xml</dc:format><dc:type
           rdf:resource="http://purl.org/dc/dcmitype/StillImage" /><dc:title></dc:title></cc:Work></rdf:RDF></metadata><defs
     id="defs14" /><sodipodi:namedview
     pagecolor="#ffffff"
     bordercolor="#666666"
     borderopacity="1"
     objecttolerance="10"
     gridtolerance="10"
     guidetolerance="10"
     inkscape:pageopacity="0"
     inkscape:pageshadow="2"
     inkscape:window-width="1920"
     inkscape:window-height="1027"
     id="namedview12"
     showgrid="false"
     inkscape:zoom="3.776"
     inkscape:cx="78.912429"
     inkscape:cy="151.4105"
     inkscape:window-x="-8"
     inkscape:window-y="-8"
     inkscape:window-maximized="1"
     inkscape:current-layer="svg10" /><g
     id="g4"
     transform="matrix(4.5833333,0,0,4.5833333,-4.5833325,10.416668)"
     style="fill:#ff5555"><path
       d="M 46,44 C 46,36.2 46,18.5 46,6 46,3.2 43.7,1 41,1 H 9 C 6.3,1 4,3.3 4,6 c 0,12.7 0,30.2 0,38 0,2.8 2.3,5 5,5 h 32 c 2.7,0 5,-2.2 5,-5 z M 9.1,6.7 c 0,-0.6 0.4,-1 1,-1 h 29.7 c 0.6,0 1,0.4 1,1 v 8.8 c 0,0.6 -0.4,1 -1,1 H 10.1 c -0.6,0 -1,-0.4 -1,-1 z m 8.5,34.9 c 0,0.5 -0.4,1 -1,1 h -6.5 c -0.5,0 -1,-0.5 -1,-1 v -6.5 c 0,-0.6 0.5,-1 1,-1 h 6.5 c 0.6,0 1,0.4 1,1 z m 0,-11 c 0,0.5 -0.4,1 -1,1 h -6.5 c -0.5,0 -1,-0.5 -1,-1 v -6.5 c 0,-0.6 0.5,-1 1,-1 h 6.5 c 0.6,0 1,0.4 1,1 z m 11.6,11 c 0,0.5 -0.4,1 -1,1 h -6.5 c -0.5,0 -1,-0.5 -1,-1 v -6.5 c 0,-0.6 0.5,-1 1,-1 h 6.5 c 0.6,0 1,0.4 1,1 z m 0,-11 c 0,0.5 -0.4,1 -1,1 h -6.5 c -0.5,0 -1,-0.5 -1,-1 v -6.5 c 0,-0.6 0.5,-1 1,-1 h 6.5 c 0.6,0 1,0.4 1,1 z m 4.6,12.2 c -0.6,0 -1,-0.4 -1,-1 V 24.3 c 0,-0.6 0.4,-1 1,-1 h 7 c 0.6,0 1,0.4 1,1 v 17.5 c 0,0.6 -0.4,1 -1,1 z"
       id="path2"
       inkscape:connector-curvature="0"
       style="fill:#ff5555" /></g></svg>