<?xml version="1.0" encoding="UTF-8" standalone="no"?>
<svg
   xmlns:dc="http://purl.org/dc/elements/1.1/"
   xmlns:cc="http://creativecommons.org/ns#"
   xmlns:rdf="http://www.w3.org/1999/02/22-rdf-syntax-ns#"
   xmlns:svg="http://www.w3.org/2000/svg"
   xmlns="http://www.w3.org/2000/svg"
   xmlns:sodipodi="http://sodipodi.sourceforge.net/DTD/sodipodi-0.dtd"
   xmlns:inkscape="http://www.inkscape.org/namespaces/inkscape"
   version="1.1"
   x="0px"
   y="0px"
   viewBox="0 0 250 250"
   enable-background="new 0 0 100 100"
   xml:space="preserve"
   id="svg8"
   sodipodi:docname="home-servico.svg"
   width="250"
   height="250"
   inkscape:version="0.92.3 (2405546, 2018-03-11)"><metadata
     id="metadata14"><rdf:RDF><cc:Work
         rdf:about=""><dc:format>image/svg+xml</dc:format><dc:type
           rdf:resource="http://purl.org/dc/dcmitype/StillImage" /><dc:title></dc:title></cc:Work></rdf:RDF></metadata><defs
     id="defs12" /><sodipodi:namedview
     pagecolor="#ffffff"
     bordercolor="#666666"
     borderopacity="1"
     objecttolerance="10"
     gridtolerance="10"
     guidetolerance="10"
     inkscape:pageopacity="0"
     inkscape:pageshadow="2"
     inkscape:window-width="1920"
     inkscape:window-height="1027"
     id="namedview10"
     showgrid="false"
     inkscape:zoom="1.888"
     inkscape:cx="50"
     inkscape:cy="62.5"
     inkscape:window-x="-8"
     inkscape:window-y="-8"
     inkscape:window-maximized="1"
     inkscape:current-layer="svg8" /><path
     d="m 49.539677,232.0877 91.731883,4.06568 c 10.16419,1.01642 19.82018,-0.2541 28.71385,-4.82799 l 2.54105,-1.27052 69.37065,-40.65679 c 3.30336,-2.03284 5.84441,-5.33621 5.84441,-9.40188 0.2541,-4.57389 -2.54105,-9.9101 -9.14778,-10.1642 -4.57389,-0.25411 -14.48398,4.82799 -17.02503,6.35262 -9.40188,4.82799 -22.61534,12.19704 -31.2549,18.29556 -0.50821,0.50821 -1.52463,1.01642 -2.03284,1.27052 -3.81158,2.54105 -7.87726,4.06568 -12.45114,5.0821 -25.15639,5.0821 -61.7475,5.59031 -61.7475,5.59031 h -2.03284 c -1.52463,0 -3.04926,-1.01642 -3.30336,-2.54105 -0.25411,-1.77874 1.01641,-3.30337 2.79515,-3.55747 l 54.37845,-5.0821 c 6.09852,-0.76231 10.67241,-6.35262 10.1642,-12.45114 -0.76231,-6.35262 -6.35262,-10.92651 -12.45114,-10.1642 l -48.53404,-0.50821 c -3.30337,0 -8.63957,-0.76231 -11.68883,-1.77873 -31.254904,-9.14778 -48.788144,-0.50821 -58.190026,3.30336 -2.03284,-3.55747 -6.098518,-5.59031 -10.418302,-5.3362 l -20.836604,1.27052 C 7.1041552,170.0861 1.7679518,175.93052 2.2761616,182.53724 l 3.3033641,46.2471 c 0.5082098,6.60673 6.6067273,11.68883 13.4675603,11.18062 l 20.836604,-1.27053 c 4.319784,-0.2541 7.877253,-3.04926 9.655987,-6.60673 z m -22.869443,-3.04925 c -3.811574,0 -7.114938,-3.04926 -7.114938,-6.86084 0,-3.81157 3.303364,-6.86083 7.114938,-6.86083 3.811574,0 7.114938,3.04926 7.114938,6.86083 0,3.81158 -3.303364,6.86084 -7.114938,6.86084 z M 186.24813,176.69283 c 7.36904,-4.06568 21.59892,-10.92651 29.47617,-13.97577 3.81157,-1.52463 7.62315,-1.52463 11.43472,1.01642 -3.04926,1.01642 -5.59031,2.03284 -8.13136,3.30336 -8.13135,4.06568 -22.61534,11.94294 -29.73027,17.02503 -0.76232,0.50821 -1.52463,1.01642 -2.28695,1.52463 0,-1.27052 0,-2.54105 0,-3.81157 -0.2541,-1.52463 -0.50821,-3.30336 -1.01642,-4.82799 0,0 0.25411,-0.25411 0.25411,-0.25411 z m 21.85302,-18.54966 c -5.59031,2.54105 -16.51682,6.35262 -21.59892,9.14778 l -3.55747,2.03284 c -0.2541,0.2541 -0.50821,0.50821 -1.01642,0.76231 -1.52463,-1.77873 -3.30336,-3.30336 -5.3362,-4.57389 4.82799,-2.54104 15.5004,-6.09851 20.32839,-7.87725 3.81158,-2.03284 7.62315,-1.77873 11.18062,0.50821 z M 64.531868,94.362839 H 75.45838 c 1.524629,7.623141 4.573889,14.738081 8.639567,21.090711 l -7.623147,7.62314 c -1.778735,1.77874 -1.778735,4.828 0,6.86083 l 9.147777,9.14778 c 1.778734,1.77874 4.827994,1.77874 6.860833,0 l 7.62315,-7.62315 c 6.35262,4.31979 13.46756,7.11494 21.09071,8.63957 v 10.92651 c 0,2.54105 2.03284,4.828 4.82799,4.828 h 13.21346 c 2.54105,0 4.82799,-2.03284 4.82799,-4.828 v -10.92651 c 7.62315,-1.52463 14.73809,-4.57389 21.09071,-8.63957 l 7.62315,7.62315 c 1.77873,1.77874 4.82799,1.77874 6.86083,0 l 9.14778,-9.14778 c 1.77873,-1.77873 1.77873,-4.82799 0,-6.86083 l -7.62315,-7.62314 c 4.31978,-6.35263 7.11494,-13.46757 8.63957,-21.090711 h 10.92651 c 2.54105,0 4.82799,-2.03284 4.82799,-4.828 v -13.21345 c 0,-2.54105 -2.03284,-4.828 -4.82799,-4.828 H 189.8056 c -1.52463,-7.62314 -4.57389,-14.73808 -8.63957,-21.09071 l 7.62315,-7.62314 c 1.77873,-1.77874 1.77873,-4.828 0,-6.86084 l -9.14778,-9.14777 c -1.77874,-1.77874 -4.82799,-1.77874 -6.86083,0 l -7.62315,7.62314 c -6.35262,-4.31978 -13.46756,-7.11493 -21.09071,-8.63956 v -10.92652 c 0,-2.54105 -2.03284,-4.8279901 -4.82799,-4.8279901 h -13.21346 c -2.54105,0 -4.82799,2.0328401 -4.82799,4.8279901 v 10.92652 c -7.62315,1.52463 -14.73809,4.57388 -21.09071,8.63956 l -7.62315,-7.62314 c -1.778735,-1.77874 -4.827994,-1.77874 -6.860833,0 l -9.147777,9.40188 c -1.778735,1.77873 -1.778735,4.82799 0,6.86083 l 7.623147,7.62315 c -4.319783,6.35262 -7.114938,13.46756 -8.639567,21.09071 H 64.531868 c -2.541049,0 -4.827993,2.03284 -4.827993,4.82799 v 12.95935 c 0,2.54105 2.032839,4.828 4.827993,4.828 z m 47.517622,0.76231 10.67241,-0.2541 c 1.01642,0 2.03284,0.76231 2.03284,1.77873 0.2541,2.79515 1.01642,4.827991 2.28694,6.098521 1.52463,1.52463 3.81157,2.54105 6.35262,2.54105 2.03284,0 3.81158,-0.50821 4.828,-1.77874 1.01642,-1.27052 1.77873,-2.79515 1.77873,-4.827991 0,-2.28694 -0.50821,-4.06568 -1.77873,-5.59031 -1.01642,-1.27052 -3.04926,-2.54105 -6.09852,-3.81157 -7.11494,-2.79516 -12.19704,-5.59031 -15.5004,-8.63957 -3.30337,-2.79515 -4.828,-7.11494 -4.828,-12.70525 0,-5.08209 1.77874,-9.14777 5.0821,-12.45114 3.04926,-3.04926 7.11494,-4.82799 12.19704,-5.59031 v -7.87725 c 0,-1.01642 0.76231,-1.77873 1.77873,-1.77873 h 6.60673 c 1.01642,0 1.77874,0.76231 1.77874,1.77873 v 8.13136 c 4.57388,1.01642 8.38546,3.04926 11.18061,6.35262 2.79516,3.04926 4.31979,7.11494 4.57389,11.68883 0,1.27052 -1.01642,2.03284 -2.03284,2.28694 l -10.6724,0.25411 c -1.01642,0 -2.03284,-0.76232 -2.03284,-1.77874 -0.25411,-2.28694 -0.76232,-4.06568 -1.77874,-5.3362 -1.27052,-1.52463 -3.04926,-2.28694 -5.0821,-2.28694 -2.03284,0 -3.81157,0.76231 -4.82799,2.03284 -1.01642,1.27052 -1.52463,3.04925 -1.52463,5.08209 0,2.03284 0.50821,3.81158 1.52463,5.0821 1.01642,1.27053 3.04926,2.54105 6.09852,3.81158 6.86083,3.04926 11.94293,5.84441 15.24629,8.89367 3.30337,3.04926 4.828,7.11494 4.828,12.70524 0,5.082101 -1.52463,9.401891 -4.828,12.451151 -2.79515,2.79515 -6.35262,4.31978 -10.92651,5.3362 v 7.62315 c 0,1.01642 -0.76231,1.77873 -1.77873,1.77873 h -6.60673 c -1.01642,0 -1.77874,-0.76231 -1.77874,-1.77873 v -7.36905 c -5.5903,-0.76231 -10.16419,-2.54104 -13.72166,-6.09851 -3.30337,-3.04926 -5.33621,-7.62315 -5.59031,-13.213461 0.2541,-1.52463 1.27052,-2.54105 2.54105,-2.54105 z"
     id="path2"
     style="fill:#ff5555;stroke-width:2.54104924"
     inkscape:connector-curvature="0" /></svg>