<svg xmlns="http://www.w3.org/2000/svg" width="3500" height="700" viewBox="0 0 926.042 185.208"><path d="M156.275 79.165l-34.805 38.44-50-11.562-15.195-50 34.804-38.439 50 11.561z" opacity=".6" fill="#e52e12"/><path d="M121.47 117.604l-34.804 38.44-50-11.562-15.196-50 34.805-38.439 50 11.561z" opacity=".6" fill="#fbe900"/><path d="M171.47 129.165l-34.804 38.44-50-11.562-15.196-50 34.805-38.439 50 11.561z" opacity=".7" fill="#80cbd9"/><g font-weight="400" font-family="sans-serif" letter-spacing="0" word-spacing="0"><text y="110.874" x="-179.458" style="line-height:1.25" font-size="25.4" fill="#4d4d4d" stroke-width=".265" transform="translate(359.635 -6.913)"><tspan style="-inkscape-font-specification:'Myriad Pro Bold'" y="110.874" x="-179.458" font-weight="700" font-size="123.472" font-family="Myriad Pro">Sorrir &amp; Viver</tspan></text><text y="-5595.335" x="-7740.389" style="line-height:1.25" font-size="96" fill="#666" transform="translate(2231.956 1637.617) scale(.26458)"><tspan style="-inkscape-font-specification:'Myriad Pro'" y="-5595.335" x="-7740.389" font-size="192" font-family="Myriad Pro">Estratégia Tecnologia Bem Estar</tspan></text></g><path d="M833.966-23.34l-3.128 3.454-4.494-1.039-1.366-4.494 3.128-3.455 4.494 1.04z" opacity=".6" fill="#e52e12"/><path d="M830.838-19.886l-3.128 3.455-4.494-1.039-1.366-4.494 3.128-3.455 4.494 1.04z" opacity=".6" fill="#fbe900"/><path d="M835.332-18.847l-3.128 3.455-4.494-1.039-1.366-4.494 3.128-3.455 4.494 1.04z" opacity=".7" fill="#80cbd9"/><g font-weight="400" font-family="sans-serif" letter-spacing="0" word-spacing="0"><text y="110.874" x="-179.458" style="line-height:1.25" font-size="25.4" fill="#4d4d4d" stroke-width=".265" transform="translate(852.245 -31.078) scale(.08988)"><tspan style="-inkscape-font-specification:'Myriad Pro Bold'" y="110.874" x="-179.458" font-weight="700" font-size="123.472" font-family="Myriad Pro">Sorrir &amp; Viver</tspan></text><text y="-5595.335" x="-7740.389" style="line-height:1.25" font-size="96" fill="#666" transform="translate(1020.533 116.736) scale(.02378)"><tspan style="-inkscape-font-specification:'Myriad Pro'" y="-5595.335" x="-7740.389" font-size="192" font-family="Myriad Pro">Estratégia Tecnologia Bem Estar</tspan></text></g></svg>