<svg xmlns="http://www.w3.org/2000/svg" width="220" height="250"><path d="M206.25 212.083V37.917C206.25 25.083 195.708 15 183.333 15H36.667C24.292 15 13.75 25.542 13.75 37.917v174.166C13.75 224.917 24.292 235 36.667 235h146.666c12.375 0 22.917-10.083 22.917-22.917zM37.125 41.125c0-2.75 1.833-4.583 4.583-4.583h136.125c2.75 0 4.584 1.833 4.584 4.583v40.333c0 2.75-1.834 4.584-4.584 4.584H41.708c-2.75 0-4.583-1.834-4.583-4.584zm38.958 159.958c0 2.292-1.833 4.584-4.583 4.584H41.708c-2.291 0-4.583-2.292-4.583-4.584v-29.791c0-2.75 2.292-4.584 4.583-4.584H71.5c2.75 0 4.583 1.834 4.583 4.584zm0-50.416c0 2.291-1.833 4.583-4.583 4.583H41.708c-2.291 0-4.583-2.292-4.583-4.583v-29.792c0-2.75 2.292-4.583 4.583-4.583H71.5c2.75 0 4.583 1.833 4.583 4.583zm53.167 50.416c0 2.292-1.833 4.584-4.583 4.584H94.875c-2.292 0-4.583-2.292-4.583-4.584v-29.791c0-2.75 2.291-4.584 4.583-4.584h29.792c2.75 0 4.583 1.834 4.583 4.584zm0-50.416c0 2.291-1.833 4.583-4.583 4.583H94.875c-2.292 0-4.583-2.292-4.583-4.583v-29.792c0-2.75 2.291-4.583 4.583-4.583h29.792c2.75 0 4.583 1.833 4.583 4.583zm21.083 55.916c-2.75 0-4.583-1.833-4.583-4.583v-80.208c0-2.75 1.833-4.584 4.583-4.584h32.084c2.75 0 4.583 1.834 4.583 4.584V202c0 2.75-1.833 4.583-4.583 4.583z" fill="#f55"/></svg>