<svg xmlns="http://www.w3.org/2000/svg" width="231.542" height="265" clip-rule="evenodd" fill-rule="evenodd" image-rendering="optimizeQuality" shape-rendering="geometricPrecision" text-rendering="geometricPrecision"><path d="M115.771 262.57H4.479A4.48 4.48 0 0 1 0 258.09v-16.104c0-17.602 5.667-34.072 15.805-46.551 9.757-12.01 23.613-20.3 40.515-22.362l3.268-.4c-3.096-11.013-6.901-20.079-10.56-28.8-7.482-17.832-14.385-34.283-14.385-64.134 0-21.279 9.354-40.42 23.997-54.334C73.596 11.195 94.096 2.43 115.769 2.43c21.674 0 42.174 8.765 57.129 22.975 14.644 13.914 23.998 33.055 23.998 54.333 0 29.851-6.903 46.302-14.385 64.135-3.661 8.722-7.465 17.788-10.561 28.801l3.272.398c16.9 2.062 30.757 10.353 40.514 22.361 10.139 12.48 15.806 28.953 15.806 46.552v16.105a4.48 4.48 0 0 1-4.479 4.48zm27.882-89.765l-2.762-13.015c-8.393 4.999-17.345 7.883-25.122 7.883-7.805 0-16.749-2.87-25.126-7.847l-2.754 12.979 27.882 24.712zm5.204-18.547l3.399 16.025 10.735 1.304c3.353-12.332 7.389-21.945 11.263-31.177 7.118-16.964 13.684-32.613 13.684-60.671 0-18.706-8.264-35.571-21.198-47.86-13.337-12.673-31.628-20.49-50.971-20.49-19.342 0-37.634 7.817-50.97 20.49-12.934 12.289-21.198 29.154-21.198 47.86 0 28.058 6.566 43.707 13.684 60.67 3.873 9.232 7.91 18.843 11.261 31.17l10.742-1.31 3.389-15.967a69.108 69.108 0 0 1-5.627-5.037c-9.814-9.814-16.866-22.843-16.866-37.18V66.058a4.48 4.48 0 0 1 4.479-4.48c6.114 0 13.178-1.097 19.822-2.765 5.179-1.3 10.058-2.926 13.997-4.634-3.467-5.632-5.803-11.565-6.747-17.521a4.462 4.462 0 1 1 8.815-1.4c.957 6.038 3.728 12.11 7.902 17.783.113.134.22.276.318.425 3.849 5.13 8.85 9.923 14.684 14.05 11.914 8.423 27.238 13.99 43.425 13.99a4.48 4.48 0 0 1 4.479 4.478v26.102c0 14.31-7.062 27.321-16.873 37.131a68.954 68.954 0 0 1-5.628 5.04zM162.4 90.336c-16.448-.925-31.875-6.872-44.088-15.508-5.545-3.92-10.446-8.414-14.495-13.263-4.733 2.22-10.789 4.326-17.162 5.925-5.764 1.448-11.846 2.504-17.513 2.888v41.708c0 11.72 5.952 22.56 14.239 30.848 9.671 9.67 22.325 15.78 32.388 15.78 10.008 0 22.689-6.131 32.385-15.827 8.284-8.283 14.246-19.106 14.246-30.801zM8.958 253.613h213.626v-11.626c0-15.564-4.937-30.042-13.775-40.92-8.333-10.255-20.189-17.341-34.67-19.106l-24.052-2.936-31.357 27.79a4.464 4.464 0 0 1-5.914.005l-31.361-27.795-24.052 2.936c-14.483 1.767-26.338 8.85-34.672 19.109-8.834 10.874-13.773 25.35-13.773 40.917z" fill="#f95" fill-rule="nonzero"/></svg>