<svg xmlns="http://www.w3.org/2000/svg" width="250" height="250"><switch transform="translate(3.94 4.043) scale(2.42007)" fill="#ddafe9"><g><path d="M28.1 76.5l-.6.6c-5.8 5.8-7.1 14.2-7.4 17.5-.1.8.2 1.6.8 2.1.6.6 1.3.8 2.1.8 3.3-.3 11.7-1.6 17.5-7.4l.6-.6c4.5-4.9 3.4-10.3.4-13.3-3-3.1-8.5-4.2-13.4.3zM38.4 87l-.5.5c-4.5 4.5-11 5.9-14.1 6.3.4-3.1 1.8-9.7 6.3-14.1l.5-.5c3.2-2.9 6.5-2.3 8.3-.5 1.8 1.8 2.4 5.1-.5 8.3zM23.5 71.9c4.5-4.9 3.4-10.3.4-13.3s-8.4-4.1-13.3.4l-.6.6C4.1 65.4 2.8 73.7 2.5 77c-.1.8.2 1.6.8 2.1.5.6 1.3.9 2.1.9 3.3-.3 11.7-1.6 17.5-7.4.2-.3.4-.5.6-.7zm-2.7-2.5l-.5.5c-4.5 4.5-11 5.9-14.1 6.3.4-3.1 1.8-9.7 6.3-14.1l.5-.5c3.2-2.9 6.5-2.3 8.3-.5 1.9 1.9 2.5 5.2-.5 8.3zm57.8-13.3c.8-.7 1.5-1.4 2.3-2.2 15-15 17.4-39.6 16.5-46.9-.3-2.3-2.1-4.1-4.4-4.4-7.3-.8-31.9 1.5-47 16.6-.7.7-1.5 1.5-2.2 2.3l-3-1.5c-7.1-3.2-15.5-1.7-21 3.8L12.5 31c-1.2 1.2-1.7 2.9-1.4 4.5.2 1 .7 2 1.4 2.7.4.4.9.8 1.5 1l13.3 6.1c-1.9 4.2-2.6 7.4-1.4 8.5L46.1 74c1.2 1.2 4.4.5 8.5-1.4L60.8 86c.3.6.6 1 1 1.5.7.7 1.7 1.2 2.7 1.4 1.6.3 3.3-.2 4.5-1.4l7.2-7.2c5.5-5.5 7-13.9 3.8-21zM15.5 35.9c-.5-.2-.8-.6-.9-1.1-.1-.5.1-1 .4-1.3l7.2-7.2c4.4-4.4 11.3-5.7 17-3l2.1 1c-5 5.8-9.5 12.4-12.4 17.8zm58.2 41.8l-7.2 7.2c-.3.3-.8.5-1.3.4-.5-.1-.9-.4-1.1-.9L57.9 71c5.5-2.9 12-7.4 17.8-12.4l1 2.1c2.6 5.8 1.4 12.6-3 17zm-25.4-6.6L28.9 51.7c.4-2.9 6.6-16.8 19.7-30C62.5 7.8 86 5.5 92.5 6.2c.6.1 1.1.6 1.2 1.2.8 6.5-1.6 30-15.5 43.9-13.1 13.3-27 19.4-29.9 19.8z"/><path d="M60.6 24.3c-4.1 4.1-4.1 10.9 0 15s10.9 4.1 15 0 4.1-10.9 0-15-10.8-4.1-15 0zm12.5 12.5c-2.7 2.7-7.2 2.7-9.9 0s-2.7-7.2 0-9.9 7.2-2.7 9.9 0 2.7 7.2 0 9.9z"/></g></switch></svg>