<svg xmlns="http://www.w3.org/2000/svg" width="170" height="250"><g fill="#00aad4"><path d="M142.37 93.309c0-31.633-25.737-57.37-57.37-57.37S27.63 61.673 27.63 93.306c0 31.635 25.737 57.37 57.37 57.37s57.37-25.732 57.37-57.367zm-104.517 0c0-25.998 21.15-47.145 47.147-47.145 25.998 0 47.147 21.147 47.147 47.145 0 25.997-21.15 47.147-47.147 47.147-25.998 0-47.147-21.152-47.147-47.147z"/><path d="M115.618 240a5.116 5.116 0 0 0 4.388-2.622l10.767-19.31 25.7 4.526a5.108 5.108 0 1 0 5.264-7.67l-31.235-51.885c22.742-14.89 37.807-40.577 37.807-69.733C168.309 47.372 130.936 10 85 10S1.691 47.372 1.691 93.309c0 29.156 15.068 54.844 37.81 69.736L8.269 214.91a5.118 5.118 0 0 0 .164 5.53 5.104 5.104 0 0 0 5.098 2.141l25.702-4.513 10.776 19.313A5.105 5.105 0 0 0 54.397 240h.077a5.113 5.113 0 0 0 4.388-2.49l26.143-43.722 26.151 43.723a5.105 5.105 0 0 0 4.385 2.489h.077zM11.914 93.309c0-40.302 32.785-73.087 73.086-73.087s73.086 32.785 73.086 73.087c0 40.3-32.785 73.086-73.086 73.086s-73.086-32.788-73.086-73.086zm42.708 131.365l-8.236-14.758a5.108 5.108 0 0 0-5.347-2.543l-18.226 3.2 25.568-42.456c10.603 5.211 22.471 8.219 35.006 8.462zm36.335-40.843l4.738-7.924a82.66 82.66 0 0 0 25.931-7.795l25.563 42.466-18.226-3.21a5.11 5.11 0 0 0-5.351 2.545l-8.229 14.756z"/><path d="M113.937 67.094a5.114 5.114 0 0 0-7.13 1.19l-27.861 39.003-16.161-17.451a5.105 5.105 0 0 0-7.222-.279 5.108 5.108 0 0 0-.276 7.222l20.424 22.057a5.11 5.11 0 0 0 4.07 1.63 5.114 5.114 0 0 0 3.836-2.13l31.508-44.112a5.11 5.11 0 0 0-1.188-7.13z"/></g></svg>