<svg xmlns="http://www.w3.org/2000/svg" width="250" height="250"><path d="M49.54 232.088l91.732 4.065c10.164 1.017 19.82-.254 28.713-4.828l2.541-1.27 69.371-40.657c3.303-2.033 5.845-5.336 5.845-9.402.254-4.574-2.542-9.91-9.148-10.164-4.574-.254-14.484 4.828-17.025 6.353-9.402 4.828-22.616 12.197-31.255 18.295-.508.508-1.525 1.017-2.033 1.27-3.812 2.542-7.877 4.066-12.451 5.083-25.157 5.082-61.748 5.59-61.748 5.59h-2.033c-1.524 0-3.049-1.016-3.303-2.54-.254-1.78 1.017-3.304 2.795-3.558l54.379-5.083c6.098-.762 10.672-6.352 10.164-12.45-.762-6.353-6.353-10.927-12.451-10.165l-48.534-.508c-3.304 0-8.64-.762-11.69-1.779-31.254-9.148-48.787-.508-58.19 3.304-2.032-3.558-6.098-5.59-10.417-5.337l-20.837 1.27c-6.86.51-12.197 6.354-11.689 12.96l3.304 46.247c.508 6.607 6.606 11.69 13.467 11.181l20.837-1.27c4.32-.255 7.877-3.05 9.656-6.607zm-22.87-3.05c-3.811 0-7.115-3.049-7.115-6.86 0-3.812 3.304-6.861 7.115-6.861 3.812 0 7.115 3.049 7.115 6.86 0 3.812-3.303 6.861-7.115 6.861zm159.578-52.345c7.37-4.066 21.6-10.927 29.476-13.976 3.812-1.525 7.623-1.525 11.435 1.016-3.05 1.017-5.59 2.033-8.131 3.304-8.132 4.066-22.616 11.943-29.73 17.025l-2.288 1.524v-3.811c-.254-1.525-.508-3.303-1.016-4.828l.254-.254zm21.853-18.55c-5.59 2.541-16.517 6.353-21.599 9.148l-3.557 2.033c-.254.254-.508.508-1.017.762a23.11 23.11 0 0 0-5.336-4.574c4.828-2.54 15.5-6.098 20.329-7.877 3.811-2.033 7.623-1.779 11.18.508zm-143.57-63.78h10.927c1.525 7.623 4.574 14.738 8.64 21.09l-7.623 7.624c-1.779 1.778-1.779 4.828 0 6.86l9.148 9.148c1.778 1.779 4.828 1.779 6.86 0l7.624-7.623c6.352 4.32 13.467 7.115 21.09 8.64v10.926c0 2.541 2.033 4.828 4.828 4.828h13.214c2.54 0 4.828-2.033 4.828-4.828v-10.926c7.623-1.525 14.738-4.574 21.09-8.64l7.624 7.623c1.778 1.779 4.828 1.779 6.86 0l9.148-9.147c1.779-1.78 1.779-4.828 0-6.861l-7.623-7.623c4.32-6.353 7.115-13.468 8.64-21.091h10.926c2.541 0 4.828-2.033 4.828-4.828V76.32c0-2.54-2.033-4.828-4.828-4.828h-10.926c-1.525-7.623-4.574-14.738-8.64-21.09l7.623-7.623c1.779-1.78 1.779-4.828 0-6.861l-9.148-9.148c-1.778-1.779-4.828-1.779-6.86 0l-7.624 7.623c-6.352-4.32-13.467-7.115-21.09-8.64V14.829c0-2.541-2.033-4.828-4.828-4.828h-13.214c-2.54 0-4.828 2.033-4.828 4.828v10.927c-7.623 1.524-14.738 4.573-21.09 8.64l-7.624-7.624c-1.778-1.779-4.828-1.779-6.86 0l-9.148 9.402c-1.779 1.779-1.779 4.828 0 6.86l7.623 7.624c-4.32 6.352-7.115 13.467-8.64 21.09H64.532c-2.541 0-4.828 2.033-4.828 4.828v12.96c0 2.54 2.033 4.828 4.828 4.828zm47.518.762l10.673-.254c1.016 0 2.033.762 2.033 1.779.254 2.795 1.016 4.828 2.287 6.098 1.524 1.525 3.811 2.541 6.352 2.541 2.033 0 3.812-.508 4.828-1.778 1.017-1.27 1.779-2.796 1.779-4.828 0-2.287-.508-4.066-1.779-5.59-1.016-1.271-3.049-2.542-6.098-3.812-7.115-2.795-12.197-5.59-15.5-8.64-3.304-2.795-4.829-7.115-4.829-12.705 0-5.082 1.78-9.148 5.082-12.451 3.05-3.05 7.115-4.828 12.198-5.59v-7.878c0-1.016.762-1.779 1.778-1.779h6.607c1.016 0 1.779.763 1.779 1.78v8.13c4.574 1.017 8.385 3.05 11.18 6.353 2.795 3.05 4.32 7.115 4.574 11.689 0 1.27-1.016 2.033-2.033 2.287l-10.672.254c-1.016 0-2.033-.762-2.033-1.779-.254-2.287-.762-4.065-1.779-5.336-1.27-1.524-3.049-2.287-5.082-2.287s-3.811.763-4.828 2.033c-1.016 1.27-1.524 3.05-1.524 5.082 0 2.033.508 3.812 1.524 5.082 1.017 1.27 3.05 2.541 6.099 3.812 6.86 3.05 11.943 5.844 15.246 8.893 3.303 3.05 4.828 7.115 4.828 12.706 0 5.082-1.525 9.402-4.828 12.45-2.795 2.796-6.353 4.32-10.926 5.337v7.623c0 1.017-.763 1.779-1.78 1.779H130.6c-1.016 0-1.779-.762-1.779-1.779v-7.369c-5.59-.762-10.164-2.54-13.721-6.098-3.304-3.05-5.336-7.623-5.59-13.214.254-1.524 1.27-2.54 2.54-2.54z" fill="#f55"/></svg>